<mxfile host="app.diagrams.net" modified="2023-12-10T13:06:40.229Z" agent="Mozilla/5.0 (Windows NT 10.0; Win64; x64) AppleWebKit/537.36 (KHTML, like Gecko) Chrome/120.0.0.0 Safari/537.36 Edg/120.0.0.0" etag="F5S8dkNiIhB1DIZj2sNG" version="22.1.7" type="device">
  <diagram name="Trang-1" id="v_dghXuXJ8g4YxU1qNj4">
    <mxGraphModel dx="1952" dy="629" grid="1" gridSize="10" guides="1" tooltips="1" connect="1" arrows="1" fold="1" page="1" pageScale="1" pageWidth="827" pageHeight="1169" math="0" shadow="0">
      <root>
        <mxCell id="0" />
        <mxCell id="1" parent="0" />
        <mxCell id="erZX0Dv1DWV7n6lkaNwc-9" value="" style="edgeStyle=orthogonalEdgeStyle;rounded=0;orthogonalLoop=1;jettySize=auto;html=1;" parent="1" source="erZX0Dv1DWV7n6lkaNwc-1" target="erZX0Dv1DWV7n6lkaNwc-8" edge="1">
          <mxGeometry relative="1" as="geometry" />
        </mxCell>
        <mxCell id="erZX0Dv1DWV7n6lkaNwc-1" value="&lt;font style=&quot;font-size: 18px;&quot;&gt;Start&lt;/font&gt;" style="ellipse;whiteSpace=wrap;html=1;" parent="1" vertex="1">
          <mxGeometry x="280" y="80" width="120" height="80" as="geometry" />
        </mxCell>
        <mxCell id="erZX0Dv1DWV7n6lkaNwc-5" value="" style="edgeStyle=orthogonalEdgeStyle;rounded=0;orthogonalLoop=1;jettySize=auto;html=1;" parent="1" source="erZX0Dv1DWV7n6lkaNwc-2" target="erZX0Dv1DWV7n6lkaNwc-4" edge="1">
          <mxGeometry relative="1" as="geometry" />
        </mxCell>
        <mxCell id="erZX0Dv1DWV7n6lkaNwc-26" value="" style="edgeStyle=orthogonalEdgeStyle;rounded=0;orthogonalLoop=1;jettySize=auto;html=1;" parent="1" source="erZX0Dv1DWV7n6lkaNwc-2" target="erZX0Dv1DWV7n6lkaNwc-25" edge="1">
          <mxGeometry relative="1" as="geometry" />
        </mxCell>
        <mxCell id="erZX0Dv1DWV7n6lkaNwc-2" value="&lt;font style=&quot;font-size: 15px;&quot;&gt;Nhập f(x)&lt;/font&gt;" style="shape=parallelogram;perimeter=parallelogramPerimeter;whiteSpace=wrap;html=1;fixedSize=1;" parent="1" vertex="1">
          <mxGeometry x="280" y="320" width="120" height="60" as="geometry" />
        </mxCell>
        <mxCell id="erZX0Dv1DWV7n6lkaNwc-7" value="" style="edgeStyle=orthogonalEdgeStyle;rounded=0;orthogonalLoop=1;jettySize=auto;html=1;" parent="1" source="erZX0Dv1DWV7n6lkaNwc-4" target="erZX0Dv1DWV7n6lkaNwc-6" edge="1">
          <mxGeometry relative="1" as="geometry" />
        </mxCell>
        <mxCell id="WWkH0RkIxQAlCRfv3KCr-17" value="&lt;span style=&quot;font-size: 15px;&quot;&gt;Đúng&lt;/span&gt;" style="edgeLabel;html=1;align=center;verticalAlign=middle;resizable=0;points=[];" vertex="1" connectable="0" parent="erZX0Dv1DWV7n6lkaNwc-7">
          <mxGeometry x="-0.36" y="-1" relative="1" as="geometry">
            <mxPoint as="offset" />
          </mxGeometry>
        </mxCell>
        <mxCell id="erZX0Dv1DWV7n6lkaNwc-4" value="&lt;font style=&quot;font-size: 15px;&quot;&gt;f(x) hợp lệ?&lt;/font&gt;" style="rhombus;whiteSpace=wrap;html=1;" parent="1" vertex="1">
          <mxGeometry x="510" y="305" width="110" height="90" as="geometry" />
        </mxCell>
        <mxCell id="erZX0Dv1DWV7n6lkaNwc-6" value="&lt;font style=&quot;font-size: 15px;&quot;&gt;Lưu f(x)&amp;nbsp;&lt;/font&gt;" style="whiteSpace=wrap;html=1;" parent="1" vertex="1">
          <mxGeometry x="505" y="440" width="120" height="60" as="geometry" />
        </mxCell>
        <mxCell id="erZX0Dv1DWV7n6lkaNwc-11" value="" style="edgeStyle=orthogonalEdgeStyle;rounded=0;orthogonalLoop=1;jettySize=auto;html=1;" parent="1" source="erZX0Dv1DWV7n6lkaNwc-8" target="erZX0Dv1DWV7n6lkaNwc-2" edge="1">
          <mxGeometry relative="1" as="geometry" />
        </mxCell>
        <mxCell id="erZX0Dv1DWV7n6lkaNwc-8" value="&lt;font style=&quot;font-size: 15px;&quot;&gt;Tạo object thuộc lớp TichPhan với các thuộc tính mặc định&lt;/font&gt;" style="rounded=0;whiteSpace=wrap;html=1;" parent="1" vertex="1">
          <mxGeometry x="250" y="200" width="180" height="60" as="geometry" />
        </mxCell>
        <mxCell id="erZX0Dv1DWV7n6lkaNwc-22" value="" style="endArrow=none;html=1;rounded=0;" parent="1" edge="1">
          <mxGeometry width="50" height="50" relative="1" as="geometry">
            <mxPoint x="620" y="350" as="sourcePoint" />
            <mxPoint x="670" y="350" as="targetPoint" />
          </mxGeometry>
        </mxCell>
        <mxCell id="WWkH0RkIxQAlCRfv3KCr-16" value="&lt;font style=&quot;font-size: 15px;&quot;&gt;Sai&lt;/font&gt;" style="edgeLabel;html=1;align=center;verticalAlign=middle;resizable=0;points=[];" vertex="1" connectable="0" parent="erZX0Dv1DWV7n6lkaNwc-22">
          <mxGeometry x="-0.192" y="2" relative="1" as="geometry">
            <mxPoint as="offset" />
          </mxGeometry>
        </mxCell>
        <mxCell id="erZX0Dv1DWV7n6lkaNwc-23" value="" style="endArrow=none;html=1;rounded=0;" parent="1" edge="1">
          <mxGeometry width="50" height="50" relative="1" as="geometry">
            <mxPoint x="670" y="350" as="sourcePoint" />
            <mxPoint x="670" y="280" as="targetPoint" />
          </mxGeometry>
        </mxCell>
        <mxCell id="erZX0Dv1DWV7n6lkaNwc-24" value="" style="endArrow=classic;html=1;rounded=0;" parent="1" edge="1">
          <mxGeometry width="50" height="50" relative="1" as="geometry">
            <mxPoint x="670" y="280" as="sourcePoint" />
            <mxPoint x="340" y="280" as="targetPoint" />
          </mxGeometry>
        </mxCell>
        <mxCell id="erZX0Dv1DWV7n6lkaNwc-28" value="" style="edgeStyle=orthogonalEdgeStyle;rounded=0;orthogonalLoop=1;jettySize=auto;html=1;" parent="1" source="erZX0Dv1DWV7n6lkaNwc-25" target="erZX0Dv1DWV7n6lkaNwc-27" edge="1">
          <mxGeometry relative="1" as="geometry" />
        </mxCell>
        <mxCell id="erZX0Dv1DWV7n6lkaNwc-30" value="" style="edgeStyle=orthogonalEdgeStyle;rounded=0;orthogonalLoop=1;jettySize=auto;html=1;" parent="1" source="erZX0Dv1DWV7n6lkaNwc-25" target="erZX0Dv1DWV7n6lkaNwc-29" edge="1">
          <mxGeometry relative="1" as="geometry" />
        </mxCell>
        <mxCell id="erZX0Dv1DWV7n6lkaNwc-25" value="&lt;font style=&quot;font-size: 15px;&quot;&gt;Nhập a, b&lt;/font&gt;" style="shape=parallelogram;perimeter=parallelogramPerimeter;whiteSpace=wrap;html=1;fixedSize=1;" parent="1" vertex="1">
          <mxGeometry x="280" y="540" width="120" height="60" as="geometry" />
        </mxCell>
        <mxCell id="erZX0Dv1DWV7n6lkaNwc-32" value="" style="edgeStyle=orthogonalEdgeStyle;rounded=0;orthogonalLoop=1;jettySize=auto;html=1;" parent="1" source="erZX0Dv1DWV7n6lkaNwc-27" target="erZX0Dv1DWV7n6lkaNwc-31" edge="1">
          <mxGeometry relative="1" as="geometry" />
        </mxCell>
        <mxCell id="erZX0Dv1DWV7n6lkaNwc-40" value="" style="edgeStyle=orthogonalEdgeStyle;rounded=0;orthogonalLoop=1;jettySize=auto;html=1;" parent="1" source="erZX0Dv1DWV7n6lkaNwc-27" target="erZX0Dv1DWV7n6lkaNwc-39" edge="1">
          <mxGeometry relative="1" as="geometry" />
        </mxCell>
        <mxCell id="erZX0Dv1DWV7n6lkaNwc-27" value="Nhập N" style="shape=parallelogram;perimeter=parallelogramPerimeter;whiteSpace=wrap;html=1;fixedSize=1;" parent="1" vertex="1">
          <mxGeometry x="280" y="700" width="120" height="60" as="geometry" />
        </mxCell>
        <mxCell id="erZX0Dv1DWV7n6lkaNwc-29" value="&lt;font style=&quot;font-size: 15px;&quot;&gt;Lưu a, b&lt;/font&gt;" style="whiteSpace=wrap;html=1;" parent="1" vertex="1">
          <mxGeometry x="505" y="540" width="120" height="60" as="geometry" />
        </mxCell>
        <mxCell id="erZX0Dv1DWV7n6lkaNwc-34" value="" style="edgeStyle=orthogonalEdgeStyle;rounded=0;orthogonalLoop=1;jettySize=auto;html=1;" parent="1" source="erZX0Dv1DWV7n6lkaNwc-31" target="erZX0Dv1DWV7n6lkaNwc-33" edge="1">
          <mxGeometry relative="1" as="geometry" />
        </mxCell>
        <mxCell id="WWkH0RkIxQAlCRfv3KCr-19" value="&lt;font style=&quot;font-size: 15px;&quot;&gt;Đúng&lt;/font&gt;" style="edgeLabel;html=1;align=center;verticalAlign=middle;resizable=0;points=[];" vertex="1" connectable="0" parent="erZX0Dv1DWV7n6lkaNwc-34">
          <mxGeometry x="-0.23" y="-2" relative="1" as="geometry">
            <mxPoint as="offset" />
          </mxGeometry>
        </mxCell>
        <mxCell id="erZX0Dv1DWV7n6lkaNwc-31" value="&lt;font style=&quot;font-size: 15px;&quot;&gt;N hợp lệ?&lt;/font&gt;" style="rhombus;whiteSpace=wrap;html=1;" parent="1" vertex="1">
          <mxGeometry x="505" y="680" width="105" height="100" as="geometry" />
        </mxCell>
        <mxCell id="erZX0Dv1DWV7n6lkaNwc-33" value="&lt;font style=&quot;font-size: 15px;&quot;&gt;Lưu N&lt;/font&gt;" style="whiteSpace=wrap;html=1;" parent="1" vertex="1">
          <mxGeometry x="497.5" y="820" width="120" height="60" as="geometry" />
        </mxCell>
        <mxCell id="erZX0Dv1DWV7n6lkaNwc-35" value="" style="endArrow=none;html=1;rounded=0;" parent="1" edge="1">
          <mxGeometry width="50" height="50" relative="1" as="geometry">
            <mxPoint x="610" y="729.5" as="sourcePoint" />
            <mxPoint x="660" y="729.5" as="targetPoint" />
          </mxGeometry>
        </mxCell>
        <mxCell id="WWkH0RkIxQAlCRfv3KCr-18" value="&lt;font style=&quot;font-size: 15px;&quot;&gt;Sai&lt;/font&gt;" style="edgeLabel;html=1;align=center;verticalAlign=middle;resizable=0;points=[];" vertex="1" connectable="0" parent="erZX0Dv1DWV7n6lkaNwc-35">
          <mxGeometry x="-0.112" y="3" relative="1" as="geometry">
            <mxPoint as="offset" />
          </mxGeometry>
        </mxCell>
        <mxCell id="erZX0Dv1DWV7n6lkaNwc-37" value="" style="endArrow=none;html=1;rounded=0;" parent="1" edge="1">
          <mxGeometry width="50" height="50" relative="1" as="geometry">
            <mxPoint x="660" y="730" as="sourcePoint" />
            <mxPoint x="660" y="650" as="targetPoint" />
          </mxGeometry>
        </mxCell>
        <mxCell id="erZX0Dv1DWV7n6lkaNwc-38" value="" style="endArrow=classic;html=1;rounded=0;" parent="1" edge="1">
          <mxGeometry width="50" height="50" relative="1" as="geometry">
            <mxPoint x="660" y="650" as="sourcePoint" />
            <mxPoint x="340" y="650" as="targetPoint" />
          </mxGeometry>
        </mxCell>
        <mxCell id="erZX0Dv1DWV7n6lkaNwc-42" value="" style="edgeStyle=orthogonalEdgeStyle;rounded=0;orthogonalLoop=1;jettySize=auto;html=1;" parent="1" source="erZX0Dv1DWV7n6lkaNwc-39" target="erZX0Dv1DWV7n6lkaNwc-41" edge="1">
          <mxGeometry relative="1" as="geometry" />
        </mxCell>
        <mxCell id="WWkH0RkIxQAlCRfv3KCr-2" value="" style="edgeStyle=orthogonalEdgeStyle;rounded=0;orthogonalLoop=1;jettySize=auto;html=1;" edge="1" parent="1" source="erZX0Dv1DWV7n6lkaNwc-39" target="WWkH0RkIxQAlCRfv3KCr-1">
          <mxGeometry relative="1" as="geometry" />
        </mxCell>
        <mxCell id="erZX0Dv1DWV7n6lkaNwc-39" value="&lt;font style=&quot;font-size: 15px;&quot;&gt;Chọn phương pháp tính tích phân&lt;/font&gt;" style="shape=parallelogram;perimeter=parallelogramPerimeter;whiteSpace=wrap;html=1;fixedSize=1;" parent="1" vertex="1">
          <mxGeometry x="245" y="910" width="190" height="100" as="geometry" />
        </mxCell>
        <mxCell id="erZX0Dv1DWV7n6lkaNwc-41" value="&lt;font style=&quot;font-size: 15px;&quot;&gt;Lưu phương pháp&lt;/font&gt;" style="whiteSpace=wrap;html=1;" parent="1" vertex="1">
          <mxGeometry x="497.5" y="930" width="120" height="60" as="geometry" />
        </mxCell>
        <mxCell id="WWkH0RkIxQAlCRfv3KCr-4" value="" style="edgeStyle=orthogonalEdgeStyle;rounded=0;orthogonalLoop=1;jettySize=auto;html=1;" edge="1" parent="1" source="WWkH0RkIxQAlCRfv3KCr-1" target="WWkH0RkIxQAlCRfv3KCr-3">
          <mxGeometry relative="1" as="geometry" />
        </mxCell>
        <mxCell id="WWkH0RkIxQAlCRfv3KCr-1" value="&lt;font style=&quot;font-size: 15px;&quot;&gt;Nhấn button tính tích phân&lt;/font&gt;" style="shape=parallelogram;perimeter=parallelogramPerimeter;whiteSpace=wrap;html=1;fixedSize=1;" vertex="1" parent="1">
          <mxGeometry x="235" y="1090" width="210" height="100" as="geometry" />
        </mxCell>
        <mxCell id="WWkH0RkIxQAlCRfv3KCr-6" value="" style="edgeStyle=orthogonalEdgeStyle;rounded=0;orthogonalLoop=1;jettySize=auto;html=1;" edge="1" parent="1" source="WWkH0RkIxQAlCRfv3KCr-3" target="WWkH0RkIxQAlCRfv3KCr-5">
          <mxGeometry relative="1" as="geometry" />
        </mxCell>
        <mxCell id="WWkH0RkIxQAlCRfv3KCr-22" value="&lt;font style=&quot;font-size: 15px;&quot;&gt;Sai&lt;/font&gt;" style="edgeLabel;html=1;align=center;verticalAlign=middle;resizable=0;points=[];" vertex="1" connectable="0" parent="WWkH0RkIxQAlCRfv3KCr-6">
          <mxGeometry x="-0.5851" y="-3" relative="1" as="geometry">
            <mxPoint as="offset" />
          </mxGeometry>
        </mxCell>
        <mxCell id="WWkH0RkIxQAlCRfv3KCr-8" value="" style="edgeStyle=orthogonalEdgeStyle;rounded=0;orthogonalLoop=1;jettySize=auto;html=1;" edge="1" parent="1" source="WWkH0RkIxQAlCRfv3KCr-3" target="WWkH0RkIxQAlCRfv3KCr-7">
          <mxGeometry relative="1" as="geometry" />
        </mxCell>
        <mxCell id="WWkH0RkIxQAlCRfv3KCr-21" value="&lt;span style=&quot;font-size: 15px;&quot;&gt;Đúng&lt;/span&gt;" style="edgeLabel;html=1;align=center;verticalAlign=middle;resizable=0;points=[];" vertex="1" connectable="0" parent="WWkH0RkIxQAlCRfv3KCr-8">
          <mxGeometry x="-0.6135" y="1" relative="1" as="geometry">
            <mxPoint as="offset" />
          </mxGeometry>
        </mxCell>
        <mxCell id="WWkH0RkIxQAlCRfv3KCr-3" value="&lt;font size=&quot;3&quot;&gt;Các dữ liệu có hợp lệ không?&lt;/font&gt;" style="rhombus;whiteSpace=wrap;html=1;" vertex="1" parent="1">
          <mxGeometry x="221.25" y="1250" width="237.5" height="180" as="geometry" />
        </mxCell>
        <mxCell id="WWkH0RkIxQAlCRfv3KCr-5" value="&lt;font size=&quot;3&quot;&gt;Yêu cầu người dùng&lt;br&gt;kiểm tra lại các dữ liệu&lt;br&gt;&lt;/font&gt;" style="whiteSpace=wrap;html=1;" vertex="1" parent="1">
          <mxGeometry x="20" y="1480" width="200" height="90" as="geometry" />
        </mxCell>
        <mxCell id="WWkH0RkIxQAlCRfv3KCr-15" value="" style="edgeStyle=orthogonalEdgeStyle;rounded=0;orthogonalLoop=1;jettySize=auto;html=1;" edge="1" parent="1" source="WWkH0RkIxQAlCRfv3KCr-7" target="WWkH0RkIxQAlCRfv3KCr-14">
          <mxGeometry relative="1" as="geometry" />
        </mxCell>
        <mxCell id="WWkH0RkIxQAlCRfv3KCr-7" value="&lt;font style=&quot;font-size: 15px;&quot;&gt;Tính tích phân và&amp;nbsp;&lt;br&gt;vẽ đồ thị&lt;/font&gt;" style="whiteSpace=wrap;html=1;" vertex="1" parent="1">
          <mxGeometry x="490" y="1480" width="190" height="90" as="geometry" />
        </mxCell>
        <mxCell id="WWkH0RkIxQAlCRfv3KCr-9" value="" style="endArrow=none;html=1;rounded=0;" edge="1" parent="1">
          <mxGeometry width="50" height="50" relative="1" as="geometry">
            <mxPoint x="-80" y="1530" as="sourcePoint" />
            <mxPoint x="20" y="1530" as="targetPoint" />
          </mxGeometry>
        </mxCell>
        <mxCell id="WWkH0RkIxQAlCRfv3KCr-10" value="" style="endArrow=none;html=1;rounded=0;" edge="1" parent="1">
          <mxGeometry width="50" height="50" relative="1" as="geometry">
            <mxPoint x="-80" y="1530" as="sourcePoint" />
            <mxPoint x="-80" y="280" as="targetPoint" />
          </mxGeometry>
        </mxCell>
        <mxCell id="WWkH0RkIxQAlCRfv3KCr-13" value="" style="endArrow=classic;html=1;rounded=0;" edge="1" parent="1">
          <mxGeometry width="50" height="50" relative="1" as="geometry">
            <mxPoint x="-80" y="280" as="sourcePoint" />
            <mxPoint x="340" y="280" as="targetPoint" />
          </mxGeometry>
        </mxCell>
        <mxCell id="WWkH0RkIxQAlCRfv3KCr-14" value="&lt;font style=&quot;font-size: 15px;&quot;&gt;End&lt;/font&gt;" style="ellipse;whiteSpace=wrap;html=1;" vertex="1" parent="1">
          <mxGeometry x="507.5" y="1620" width="155" height="80" as="geometry" />
        </mxCell>
      </root>
    </mxGraphModel>
  </diagram>
</mxfile>
